<?xml version="1.0" encoding="UTF-8"?>
<svg id="Layer_1" xmlns="http://www.w3.org/2000/svg" version="1.1" xmlns:xlink="http://www.w3.org/1999/xlink" viewBox="0 0 1024 1024">
  <!-- Generator: Adobe Illustrator 29.7.0, SVG Export Plug-In . SVG Version: 2.1.1 Build 60)  -->
  <defs>
    <style>
      .st0 {
        fill: #231f20;
      }

      .st1 {
        fill: url(#linear-gradient);
      }
    </style>
    <linearGradient id="linear-gradient" x1="84.99" y1="547.4" x2="939" y2="547.4" gradientTransform="translate(0 -54)" gradientUnits="userSpaceOnUse">
      <stop offset=".5" stop-color="#2bb673"/>
      <stop offset=".5" stop-color="#28965a"/>
    </linearGradient>
  </defs>
  <path class="st1" d="M886.86,183.15c176.36,272.42-130.84,798.29-382.59,795.14-248.46-3.11-544.06-522.74-363.8-795.14C220.67,61.95,383.64,6.97,519.31,8.53c127.34,1.48,289.11,53.43,367.56,174.61h-.01Z"/>
  <path class="st0" d="M283.27,710.89l-6.27,74.71c24.56-14.11,46.5-19.85,75.76-19.85,75.24,0,131.66,39.71,131.66,120.69s-73.67,129.05-150.47,129.05c-62.17,0-121.74-22.47-157.79-78.37l61.65-40.75c27.17,32.39,48.59,47.02,93,47.02,41.28,0,66.88-14.63,66.88-53.29s-26.12-56.43-67.4-56.43c-24.03,0-55.38,7.84-69.49,22.99l-62.17-36.57,14.11-187.05h247.65l-3.13,77.85h-173.99Z"/>
  <path class="st0" d="M657.53,1006.09v-251.83h-67.4v-67.92c53.82,0,73.67-29.26,81.51-53.29h72.62v373.05h-86.73Z"/>
  <ellipse class="st0" cx="302.12" cy="427.4" rx="109.24" ry="174.06" transform="translate(-213.73 338.81) rotate(-45)"/>
  <ellipse class="st0" cx="721.86" cy="427.39" rx="174.06" ry="109.24" transform="translate(-90.79 635.61) rotate(-45)"/>
</svg>